<svg width="24" height="24" viewBox="0 0 24 24" fill="none" xmlns="http://www.w3.org/2000/svg">
<rect width="24" height="24" rx="4" fill="#66809E"/>
<path d="M16.0229 15.5508C16.1306 15.6587 16.1306 15.8289 16.0197 15.9434C15.9154 16.0449 15.7456 16.0449 15.6346 15.9368L13.9441 14.2448C13.8397 14.137 13.8397 13.9667 13.9506 13.8554C14.0551 13.7507 14.2313 13.7507 14.3423 13.8554L16.0229 15.5508ZM15.2756 6C15.4519 6 15.6315 6.01308 15.8076 6.05556C15.9936 6.08832 16.1633 6.144 16.3265 6.21276C16.5549 6.31092 16.6659 6.58259 16.5647 6.81827C16.5421 6.87162 16.51 6.92041 16.4701 6.96227C16.1208 7.31242 15.7717 7.65945 15.4257 8.00961L15.4844 8.21913L15.5367 8.43188L15.7521 8.4908L15.961 8.54648C16.3069 8.19633 16.6561 7.85253 17.0052 7.49902C17.1816 7.31902 17.4752 7.31902 17.6579 7.49902C17.7102 7.5547 17.7493 7.62345 17.769 7.69545C17.8315 7.84512 17.8786 8.00086 17.9093 8.16021V8.16681H17.9125C17.9451 8.33372 17.9648 8.51372 17.9648 8.70356C17.9648 9.43999 17.6613 10.1175 17.175 10.6085C16.692 11.0962 16.0131 11.3974 15.2756 11.3974C15.2233 11.3974 15.1712 11.3942 15.1189 11.3942L14.6098 11.8981L17.41 14.7063L17.4327 14.7325C17.7744 15.086 17.9653 15.5592 17.9647 16.0515C17.9647 16.536 17.782 17.0236 17.4099 17.3935L17.4033 17.4001C17.0313 17.7668 16.5548 17.95 16.0718 17.95C15.5887 17.95 15.096 17.7668 14.7337 17.3935L11.927 14.5819L9.06519 17.459C8.46791 18.0579 7.74668 18.1103 7.15598 17.8551C6.92757 17.7602 6.72201 17.6162 6.55223 17.4459H6.549C6.37934 17.2725 6.239 17.0695 6.14436 16.8436C5.88987 16.2512 5.94203 15.5246 6.54254 14.9289V14.9223L9.73426 11.7213L8.5659 10.5495L7.52808 10.2386C7.46302 10.2201 7.40288 10.1873 7.35207 10.1426C7.30125 10.0978 7.26103 10.0423 7.23435 9.97998L6.239 7.63977C6.14759 7.46962 6.17702 7.24702 6.3206 7.10302L6.73829 6.68735L7.14952 6.27492C7.27682 6.14736 7.47591 6.09816 7.65216 6.17676L10.015 7.1881C10.0778 7.21435 10.1339 7.25447 10.1791 7.30547C10.2243 7.35648 10.2574 7.41706 10.276 7.4827L10.5828 8.52356L11.7512 9.69534L12.5899 8.86064C12.5867 8.80172 12.5833 8.74604 12.5833 8.70356H12.5865C12.5865 7.95405 12.8869 7.27654 13.3731 6.79211V6.78875C13.8592 6.30444 14.5349 6 15.2756 6ZM13.9571 12.5526L12.58 13.9339L15.38 16.7421C15.566 16.932 15.8237 17.0301 16.0718 17.0301C16.3198 17.0301 16.5712 16.932 16.7572 16.7454L16.7637 16.7421C16.953 16.5589 17.0411 16.3003 17.0411 16.0515C17.0411 15.8092 16.953 15.5639 16.7767 15.3805L16.7572 15.3609L13.9571 12.5526ZM10.3804 11.0732L11.1016 10.3532L9.85164 9.09631C9.7894 9.03336 9.74639 8.95388 9.72768 8.86724L9.4568 7.94745L7.57702 7.1521L7.3845 7.34194L7.19199 7.53826L7.9916 9.42355L8.93801 9.70182C9.01638 9.72474 9.08159 9.76398 9.13387 9.8229L10.3804 11.0732ZM15.2104 6.92303C14.7624 6.9395 14.3375 7.1268 14.0224 7.4467C13.8564 7.61083 13.7247 7.80653 13.6351 8.02235C13.5454 8.23817 13.4996 8.46976 13.5003 8.70356H13.5069V8.83124L13.5199 8.93923C13.5525 9.08323 13.5069 9.24031 13.3958 9.35491L7.19199 15.5737H7.18876C6.90161 15.8715 6.86894 16.2087 6.98644 16.4869C7.03537 16.5948 7.11051 16.7029 7.19857 16.7944C7.29321 16.8861 7.39766 16.9581 7.51193 17.0072C7.78927 17.1283 8.12225 17.0955 8.41587 16.8075L11.5945 13.6196L11.6076 13.6066L13.6309 11.574L13.644 11.5577L14.6165 10.5888H14.6197C14.7144 10.4841 14.8613 10.4318 15.0081 10.4547C15.0538 10.4612 15.0962 10.4678 15.1452 10.4678C15.1778 10.471 15.2235 10.4744 15.2757 10.4744C15.7653 10.4744 16.2091 10.2747 16.5289 9.96054V9.95394C16.8325 9.65286 17.025 9.23059 17.0414 8.76248C16.8423 8.96539 16.6432 9.16183 16.4441 9.36799C16.33 9.49555 16.1569 9.54799 15.9807 9.50875L15.5173 9.38107L15.0473 9.25351C14.8906 9.21091 14.7634 9.09631 14.7209 8.92615L14.597 8.4548L14.4697 7.98345C14.4338 7.83945 14.4664 7.66269 14.5905 7.5481C14.7958 7.3387 15.0015 7.13254 15.2104 6.92303Z" fill="white"/>
</svg>
