<svg width="24" height="24" viewBox="0 0 24 24" fill="none" xmlns="http://www.w3.org/2000/svg">
<g clip-path="url(#clip0_557_1907)">
<path d="M24 12C24 15.1826 22.7357 18.2348 20.4853 20.4853C18.2348 22.7357 15.1826 24 12 24C8.8174 24 5.76516 22.7357 3.51472 20.4853C1.26428 18.2348 0 15.1826 0 12C0 8.8174 1.26428 5.76516 3.51472 3.51472C5.76516 1.26428 8.8174 0 12 0C15.1826 0 18.2348 1.26428 20.4853 3.51472C22.7357 5.76516 24 8.8174 24 12Z" fill="#F5B113"/>
<path d="M11.4555 6.57407C11.5256 6.50009 11.61 6.44116 11.7036 6.40089C11.7972 6.36061 11.8981 6.33984 12 6.33984C12.1019 6.33984 12.2027 6.36061 12.2964 6.40089C12.39 6.44116 12.4744 6.50009 12.5445 6.57407L16.647 10.9046C16.7479 11.011 16.8154 11.1447 16.8411 11.289C16.8668 11.4334 16.8496 11.5822 16.7917 11.7169C16.7337 11.8516 16.6376 11.9664 16.5151 12.047C16.3926 12.1277 16.2491 12.1706 16.1025 12.1706H7.89749C7.75084 12.1706 7.6074 12.1277 7.4849 12.047C7.36241 11.9664 7.26624 11.8516 7.2083 11.7169C7.15036 11.5822 7.13318 11.4334 7.1589 11.289C7.18462 11.1447 7.2521 11.011 7.353 10.9046L11.4555 6.57407Z" fill="white"/>
<path d="M11.916 11.1426C12.76 11.1426 13.182 11.5646 13.182 12.4086V16.7331C13.182 17.5771 12.76 17.9991 11.916 17.9991C11.072 17.9991 10.65 17.5771 10.65 16.7331V12.4086C10.65 11.5646 11.072 11.1426 11.916 11.1426Z" fill="white"/>
</g>
<defs>
<clipPath id="clip0_557_1907">
<rect width="24" height="24" fill="white"/>
</clipPath>
</defs>
</svg>
