<svg width="24" height="24" viewBox="0 0 24 24" fill="none" xmlns="http://www.w3.org/2000/svg">
<g clip-path="url(#clip0_557_1917)">
<path d="M23.279 10.3222L13.6778 0.72099C12.7225 -0.24033 11.2775 -0.24033 10.3222 0.72099L0.721021 10.3222C-0.2403 11.2775 -0.2403 12.7225 0.721021 13.6778L10.3222 23.279C11.2775 24.2403 12.7225 24.2403 13.6778 23.279L23.279 13.6778C24.2404 12.7225 24.2404 11.2775 23.279 10.3222Z" fill="#2D8A39"/>
<path d="M15.7015 9.22655C15.8418 9.08508 16.0318 9.00387 16.231 9.00013C16.4302 8.9964 16.6231 9.07044 16.7686 9.20654C16.8984 9.32779 16.9795 9.49223 16.9966 9.66901C17.0137 9.84579 16.9657 10.0227 16.8616 10.1666L16.7896 10.2517L11.374 15.7732C11.2435 15.905 11.0695 15.985 10.8845 15.9982C10.6995 16.0114 10.5159 15.9571 10.3679 15.8453L10.2819 15.7692L7.2066 12.5929C7.13868 12.523 7.08544 12.4403 7.05 12.3495C7.01456 12.2588 6.99765 12.1618 7.00026 12.0644C7.00287 11.967 7.02495 11.8712 7.0652 11.7824C7.10544 11.6937 7.16304 11.6139 7.2346 11.5478C7.36686 11.4251 7.53819 11.353 7.7184 11.3442C7.89862 11.3354 8.07614 11.3905 8.21971 11.4998L8.30272 11.5738L10.835 14.1871L15.7005 9.22655H15.7015Z" fill="white"/>
</g>
<defs>
<clipPath id="clip0_557_1917">
<rect width="24" height="24" fill="white"/>
</clipPath>
</defs>
</svg>
