<svg width="24" height="24" viewBox="0 0 24 24" fill="none" xmlns="http://www.w3.org/2000/svg">
<g clip-path="url(#clip0_557_1891)">
<path d="M11.9999 0C5.37254 0 -4.57764e-05 5.37258 -4.57764e-05 12C-4.57764e-05 18.6274 5.37254 24 11.9999 24C18.6274 24 23.9999 18.6274 23.9999 12C23.9999 5.37258 18.6274 0 11.9999 0ZM16.1167 11.4768L9.55497 19.7128C9.40849 19.8963 9.1401 19.815 9.17827 19.5996L10.3589 12.8507H8.00869C7.84003 12.8507 7.76987 12.666 7.88313 12.5232L14.4449 4.28716C14.5914 4.10372 14.8598 4.18499 14.8216 4.40042L13.641 11.1493H15.9912C16.1598 11.1493 16.23 11.334 16.1167 11.4768Z" fill="#CB0000"/>
</g>
<defs>
<clipPath id="clip0_557_1891">
<rect width="24" height="24" fill="white"/>
</clipPath>
</defs>
</svg>
