<?xml version="1.0" standalone="no"?><!DOCTYPE svg PUBLIC "-//W3C//DTD SVG 1.1//EN" "http://www.w3.org/Graphics/SVG/1.1/DTD/svg11.dtd"><svg t="1717661280637" class="icon" viewBox="0 0 1568 1024" version="1.1" xmlns="http://www.w3.org/2000/svg" p-id="10909" xmlns:xlink="http://www.w3.org/1999/xlink" width="306.25" height="200"><path d="M141.024 0h1271.424c80.224 0 143.424 63.392 143.424 138.976v746.048c0 78.016-63.2 138.976-140.992 138.976H141.024C63.232 1024 0.032 960.608 0.032 885.024V138.976C0.032 63.392 63.232 0 141.024 0z" fill="#009800" p-id="10910"></path><path d="M0.032 885.024C0.032 960.608 63.232 1024 141.024 1024h1273.856c77.792 0 140.992-60.96 140.992-138.976v-543.68H0v543.68z" p-id="10911"></path><path d="M0.032 341.344h1555.872v341.344H0.032z" fill="#FFFFFF" p-id="10912"></path><path d="M141.024 0C63.232 0 0.032 63.392 0.032 138.976v746.048C0.032 960.608 63.232 1024 141.024 1024h267.424V0H141.024z" fill="#CB1125" p-id="10913"></path><path d="M0.032 0h409.6v1024H0.032V0z" fill="#CB1125" p-id="10914"></path><path d="M409.632 0h1146.88v1024H409.632V0z" fill="#FFFFFF" p-id="10915"></path><path d="M409.632 0h1146.88v337.92H409.632V0z" fill="#009800" p-id="10916"></path><path d="M409.632 686.08h1146.88V1024H409.632V686.08z" p-id="10917"></path></svg>