<svg width="20" height="20" viewBox="0 0 20 20" fill="none" xmlns="http://www.w3.org/2000/svg">
<rect width="20" height="20" rx="4" fill="#FF7A00"/>
<path d="M7.399 15H5C4.73736 15 4.47728 14.9483 4.23463 14.8478C3.99198 14.7472 3.7715 14.5999 3.58579 14.4142C3.40007 14.2285 3.25275 14.008 3.15224 13.7654C3.05173 13.5227 3 13.2626 3 13V5C3 4.46957 3.21071 3.96086 3.58579 3.58579C3.96086 3.21071 4.46957 3 5 3L13 3C13.2626 3 13.5227 3.05173 13.7654 3.15224C14.008 3.25275 14.2285 3.40007 14.4142 3.58579C14.5999 3.7715 14.7472 3.99198 14.8478 4.23463C14.9483 4.47728 15 4.73736 15 5V12.206L16.863 15.457C16.9984 15.6932 17.0351 15.9733 16.965 16.2364C16.895 16.4995 16.7239 16.7244 16.489 16.862C16.334 16.952 16.159 17 15.979 17H8.02C7.457 17 7 16.54 7 15.971C7 15.791 7.047 15.614 7.137 15.457L7.399 15ZM14 10.462V5C14 4.86868 13.9741 4.73864 13.9239 4.61732C13.8736 4.49599 13.8 4.38575 13.7071 4.29289C13.6142 4.20003 13.504 4.12638 13.3827 4.07612C13.2614 4.02587 13.1313 4 13 4H5C4.73478 4 4.48043 4.10536 4.29289 4.29289C4.10536 4.48043 4 4.73478 4 5V13C4 13.1313 4.02587 13.2614 4.07612 13.3827C4.12638 13.504 4.20003 13.6142 4.29289 13.7071C4.38575 13.8 4.49599 13.8736 4.61732 13.9239C4.73864 13.9741 4.86868 14 5 14H7.972L11.116 8.514C11.2048 8.35786 11.3334 8.22803 11.4887 8.13772C11.6439 8.0474 11.8204 7.99983 12 7.99983C12.1796 7.99983 12.3561 8.0474 12.5113 8.13772C12.6666 8.22803 12.7952 8.35786 12.884 8.514L14 10.462ZM5 10H7V11H5V10ZM5 8H9V9H5V8ZM5 6H13V7H5V6ZM12 9L8 16H16L12 9ZM11.5 11H12.5V13.5H11.5V11ZM11.5 14H12.5V15H11.5V14Z" fill="#F9F9F9"/>
</svg>
