<svg width="20" height="20" viewBox="0 0 20 20" fill="none" xmlns="http://www.w3.org/2000/svg">
<path d="M6.28441 17.1429H2.85727C2.48206 17.1429 2.11053 17.069 1.76388 16.9254C1.41724 16.7818 1.10227 16.5713 0.83696 16.306C0.57165 16.0407 0.361194 15.7257 0.217609 15.3791C0.0740243 15.0325 0.000122068 14.6609 0.00012207 14.2857L0.00012207 2.85714C0.00012207 2.09938 0.301142 1.37266 0.83696 0.836838C1.37278 0.30102 2.0995 0 2.85727 0L14.2858 0C14.661 -2.56488e-09 15.0326 0.0739022 15.3792 0.217487C15.7259 0.361072 16.0408 0.571527 16.3061 0.836838C16.5715 1.10215 16.7819 1.41712 16.9255 1.76376C17.0691 2.11041 17.143 2.48194 17.143 2.85714V13.1514L19.8044 17.7957C19.9978 18.1332 20.0502 18.5333 19.9502 18.9092C19.8501 19.2851 19.6057 19.6062 19.2701 19.8029C19.0487 19.9314 18.7987 20 18.5416 20H7.17155C6.36727 20 5.71441 19.3429 5.71441 18.53C5.71441 18.2729 5.78155 18.02 5.91012 17.7957L6.28441 17.1429ZM15.7144 10.66V2.85714C15.7144 2.66954 15.6775 2.48377 15.6057 2.31045C15.5339 2.13713 15.4286 1.97965 15.296 1.84699C15.1633 1.71434 15.0059 1.60911 14.8325 1.53731C14.6592 1.46552 14.4734 1.42857 14.2858 1.42857H2.85727C2.47838 1.42857 2.11502 1.57908 1.84711 1.84699C1.5792 2.1149 1.42869 2.47826 1.42869 2.85714V14.2857C1.42869 14.4733 1.46564 14.6591 1.53744 14.8324C1.60923 15.0057 1.71446 15.1632 1.84711 15.2959C1.97977 15.4285 2.13725 15.5338 2.31057 15.6055C2.4839 15.6773 2.66966 15.7143 2.85727 15.7143H7.10298L11.5944 7.87714C11.7213 7.65409 11.905 7.46862 12.1268 7.3396C12.3486 7.21057 12.6007 7.14261 12.8573 7.14261C13.1139 7.14261 13.3659 7.21057 13.5877 7.3396C13.8096 7.46862 13.9932 7.65409 14.1201 7.87714L15.7144 10.66ZM2.85727 10H5.71441V11.4286H2.85727V10ZM2.85727 7.14286H8.57155V8.57143H2.85727V7.14286ZM2.85727 4.28571H14.2858V5.71429H2.85727V4.28571ZM12.8573 8.57143L7.14298 18.5714H18.5716L12.8573 8.57143ZM12.143 11.4286H13.5716V15H12.143V11.4286ZM12.143 15.7143H13.5716V17.1429H12.143V15.7143Z" fill="white"/>
</svg>
