<svg width="36" height="36" viewBox="0 0 36 36" fill="none" xmlns="http://www.w3.org/2000/svg">
<path d="M18 9.16666C12.0168 9.16666 7.16667 14.0167 7.16667 20C7.16478 21.4758 7.46537 22.9364 8.04987 24.2915C8.63437 25.6466 9.49038 26.8676 10.5651 27.8791C10.6708 27.9762 10.7561 28.0933 10.8162 28.2236C10.8762 28.354 10.9098 28.495 10.9149 28.6384C10.9199 28.7818 10.8965 28.9248 10.8459 29.0591C10.7952 29.1934 10.7184 29.3163 10.6199 29.4206C10.5213 29.525 10.403 29.6087 10.2719 29.667C10.1407 29.7252 9.99927 29.7568 9.85579 29.7599C9.7123 29.7631 9.56963 29.7377 9.43605 29.6852C9.30247 29.6327 9.18066 29.5542 9.07767 29.4542C7.78844 28.2403 6.76152 26.7752 6.06021 25.1492C5.35891 23.5232 4.99809 21.7708 5.00001 20C5.00001 12.8207 10.8208 7 18 7C19.8926 7 21.6942 7.40517 23.3192 8.13425C23.449 8.19258 23.566 8.2759 23.6636 8.37947C23.7613 8.48304 23.8375 8.60482 23.8881 8.73786C23.9386 8.8709 23.9625 9.01259 23.9583 9.15485C23.9541 9.2971 23.9219 9.43714 23.8635 9.56696C23.7457 9.82913 23.5286 10.0338 23.2599 10.1359C23.1269 10.1864 22.9852 10.2103 22.8429 10.2061C22.7007 10.2018 22.5606 10.1697 22.4308 10.1113C21.0374 9.48646 19.5271 9.16448 18 9.16666ZM28.1237 13.6192C28.2504 13.5543 28.3886 13.5151 28.5305 13.5037C28.6723 13.4923 28.815 13.5089 28.9505 13.5527C29.0859 13.5965 29.2113 13.6665 29.3197 13.7587C29.428 13.851 29.5171 13.9637 29.5819 14.0904C30.5167 15.9199 31.0027 17.9455 31 20C31 23.7256 29.4313 27.085 26.9223 29.4542C26.8193 29.5542 26.6975 29.6327 26.5639 29.6852C26.4304 29.7377 26.2877 29.7631 26.1442 29.7599C26.0007 29.7568 25.8593 29.7252 25.7281 29.667C25.597 29.6087 25.4787 29.525 25.3801 29.4206C25.2816 29.3163 25.2048 29.1934 25.1541 29.0591C25.1035 28.9248 25.08 28.7818 25.0851 28.6384C25.0902 28.495 25.1238 28.354 25.1838 28.2236C25.2439 28.0933 25.3292 27.9762 25.4349 27.8791C26.5096 26.8676 27.3656 25.6466 27.9501 24.2915C28.5346 22.9364 28.8352 21.4758 28.8333 20C28.8361 18.2883 28.4313 16.6005 27.6525 15.0762C27.5219 14.8205 27.4982 14.5234 27.5865 14.2502C27.6749 13.9769 27.8681 13.75 28.1237 13.6192Z" fill="white"/>
<path d="M18 17.8333C17.4254 17.8333 16.8743 18.0615 16.4679 18.4679C16.0616 18.8742 15.8333 19.4253 15.8333 19.9999C15.8333 20.5746 16.0616 21.1257 16.4679 21.532C16.8743 21.9383 17.4254 22.1666 18 22.1666C18.5746 22.1666 19.1257 21.9383 19.5321 21.532C19.9384 21.1257 20.1667 20.5746 20.1667 19.9999C20.1667 19.4253 19.9384 18.8742 19.5321 18.4679C19.1257 18.0615 18.5746 17.8333 18 17.8333ZM13.6667 19.9999C13.6666 19.4308 13.7787 18.8673 13.9964 18.3415C14.2142 17.8157 14.5334 17.338 14.9358 16.9356C15.3381 16.5332 15.8159 16.2139 16.3416 15.9961C16.8674 15.7784 17.4309 15.6663 18 15.6663C18.5691 15.6663 19.1326 15.7784 19.6584 15.9961C20.1841 16.2139 20.6619 16.5332 21.0642 16.9356C21.4666 17.338 21.7858 17.8157 22.0036 18.3415C22.2213 18.8673 22.3334 19.4308 22.3333 19.9999C22.3332 21.1491 21.8767 22.2512 21.064 23.0638C20.2514 23.8764 19.1492 24.3329 18 24.3329C16.8508 24.3329 15.7486 23.8764 14.936 23.0638C14.1233 22.2512 13.6668 21.1491 13.6667 19.9999Z" fill="white"/>
<path d="M26.8909 10.5674C27.094 10.7706 27.2081 11.0461 27.2081 11.3333C27.2081 11.6206 27.094 11.8961 26.8909 12.0993L20.9326 18.0576C20.7283 18.2549 20.4546 18.3641 20.1706 18.3617C19.8865 18.3592 19.6148 18.2453 19.4139 18.0444C19.2131 17.8435 19.0992 17.5718 19.0967 17.2878C19.0942 17.0037 19.2034 16.7301 19.4008 16.5258L25.3591 10.5674C25.5622 10.3643 25.8377 10.2502 26.125 10.2502C26.4123 10.2502 26.6878 10.3643 26.8909 10.5674Z" fill="white"/>
</svg>
