<svg width="20" height="20" viewBox="0 0 20 20" fill="none" xmlns="http://www.w3.org/2000/svg">
<rect width="20" height="20" rx="4" fill="#385A8D"/>
<path d="M14.8776 7.0905L12.0755 4.28841C11.9974 4.21029 11.8919 4.16602 11.7812 4.16602H6.24998C6.01951 4.16602 5.83331 4.35221 5.83331 4.58268V15.416C5.83331 15.6465 6.01951 15.8327 6.24998 15.8327H14.5833C14.8138 15.8327 15 15.6465 15 15.416V7.38607C15 7.27539 14.9557 7.16862 14.8776 7.0905ZM11.5885 5.12695L14.039 7.57747H11.5885V5.12695ZM14.0625 14.8952H6.77081V5.10352H10.7031V7.91602C10.7031 8.06106 10.7607 8.20016 10.8633 8.30271C10.9658 8.40527 11.1049 8.46289 11.25 8.46289H14.0625V14.8952Z" fill="white"/>
<path d="M11.2936 13.2962V13.9993H8.91083V13.2962H11.2936ZM9.18101 9.25977V13.9993H8.28583V9.25977H9.18101Z" fill="white"/>
</svg>
