<svg width="22" height="22" viewBox="0 0 22 22" fill="none" xmlns="http://www.w3.org/2000/svg">
<path d="M11 20.1666C16.0627 20.1666 20.1667 16.0625 20.1667 10.9999C20.1667 5.93731 16.0627 1.83325 11 1.83325C5.93743 1.83325 1.83337 5.93731 1.83337 10.9999C1.83337 16.0625 5.93743 20.1666 11 20.1666Z" stroke="white" stroke-width="1.5" stroke-linecap="round" stroke-linejoin="round"/>
<path d="M7.33338 2.75H8.25005C6.46255 8.10333 6.46255 13.8967 8.25005 19.25H7.33338" stroke="white" stroke-width="1.5" stroke-linecap="round" stroke-linejoin="round"/>
<path d="M13.75 2.75C15.5375 8.10333 15.5375 13.8967 13.75 19.25" stroke="white" stroke-width="1.5" stroke-linecap="round" stroke-linejoin="round"/>
<path d="M2.75 14.6667V13.75C8.10333 15.5375 13.8967 15.5375 19.25 13.75V14.6667" stroke="white" stroke-width="1.5" stroke-linecap="round" stroke-linejoin="round"/>
<path d="M2.75 8.25005C8.10333 6.46255 13.8967 6.46255 19.25 8.25005" stroke="white" stroke-width="1.5" stroke-linecap="round" stroke-linejoin="round"/>
</svg>
