<svg width="16" height="16" viewBox="0 0 16 16" fill="none" xmlns="http://www.w3.org/2000/svg">
<path opacity="0.3" d="M12.0419 10.2301L8.77526 13.8301C8.37526 14.2968 7.70859 14.2968 7.30859 13.8301L4.04194 10.2301C3.04194 9.09679 2.5086 7.63012 2.7086 5.96348C3.04194 3.56348 4.97527 1.63015 7.37526 1.36348C10.5753 1.03015 13.3086 3.49681 13.3086 6.63015C13.3753 8.03012 12.8419 9.29679 12.0419 10.2301Z" fill="#FF7A00"/>
<path d="M8.04199 8.69699C9.14659 8.69699 10.042 7.80159 10.042 6.69699C10.042 5.59245 9.14659 4.69702 8.04199 4.69702C6.93745 4.69702 6.04199 5.59245 6.04199 6.69699C6.04199 7.80159 6.93745 8.69699 8.04199 8.69699Z" fill="#FF7A00"/>
</svg>
