<?xml version="1.0" standalone="no"?><!DOCTYPE svg PUBLIC "-//W3C//DTD SVG 1.1//EN" "http://www.w3.org/Graphics/SVG/1.1/DTD/svg11.dtd"><svg t="1717663756122" class="icon" viewBox="0 0 1024 1024" version="1.1" xmlns="http://www.w3.org/2000/svg" p-id="27626" xmlns:xlink="http://www.w3.org/1999/xlink" width="200" height="200"><path d="M642.9 800.8c0 12-10.1 22.2-22.1 22.2H222.6c-12 0-22.1-10.2-22.1-22.2V223.2c0-12 10.1-22.2 22.1-22.2h398.2c12 0 22.1 10.2 22.1 22.2v88.9h88.5v-88.9c0-61.1-49.8-111.1-110.6-111.1H222.6c-60.8 0-110.6 50-110.6 111.1v577.5c0 61.1 49.8 111.1 110.6 111.1h398.2c60.8 0 110.6-50 110.6-111.1v-88.8h-88.5v88.9zM912 512L779.3 378.7v88.8H462.2v88.8h317.1v88.8L912 512z" fill="#4F2C2C" p-id="27627"></path></svg>