<svg width="49" height="29" xmlns="http://www.w3.org/2000/svg" fill="none">

 <g>
  <title>Layer 1</title>
  <path id="svg_1" fill="#A7B1C2" d="m21.2539,15.5862c0,-0.8214 0.3481,-1.5402 1.0442,-2.1562c0.6962,-0.6161 1.5083,-0.9446 2.4597,-0.9446c0.9282,0 1.7404,0.308 2.4597,0.9446c0.6961,0.616 1.0442,1.3348 1.0442,2.1562c0,0.8214 -0.3481,1.5401 -1.0442,2.1562c-0.6961,0.616 -1.5083,0.9446 -2.4597,0.9446c-0.9282,0 -1.7403,-0.308 -2.4597,-0.9446c-0.6961,-0.6366 -1.0442,-1.3553 -1.0442,-2.1562zm1.9956,-0.9446l0,1.8481c0,0.6572 0.116,1.1295 0.3481,1.3964c0.232,0.2875 0.6033,0.4107 1.137,0.4107c0.5337,0 0.905,-0.1437 1.137,-0.4107c0.2321,-0.2875 0.3481,-0.7392 0.3481,-1.3964l0,-1.8481c0,-0.6572 -0.116,-1.1295 -0.3481,-1.3964c-0.232,-0.267 -0.6033,-0.4107 -1.137,-0.4107c-0.5337,0 -0.905,0.1437 -1.137,0.4107c-0.2321,0.2669 -0.3481,0.7392 -0.3481,1.3964z"/>
  <path id="svg_2" fill="#A7B1C2" d="m28.6328,18.4609l0,-0.3491l1.1602,0l0,-5.1541l-1.1602,0l0,-0.3491l1.0905,0c0.2089,0 0.4873,-0.0205 0.7889,-0.0411c0.3249,-0.0205 0.6729,-0.0616 1.021,-0.1027l0,1.458l0.1392,0c0.2784,-0.4928 0.6033,-0.8625 0.9977,-1.0883c0.3713,-0.2464 0.8121,-0.3697 1.2994,-0.3697c0.3712,0 0.6729,0.0822 0.9049,0.267c0.232,0.1643 0.3248,0.4107 0.3248,0.6982c0,0.2464 -0.0696,0.4517 -0.232,0.5955c-0.1624,0.1437 -0.3713,0.2259 -0.6265,0.2259c-0.3248,0 -0.5569,-0.0617 -0.7193,-0.1849c-0.1624,-0.1232 -0.232,-0.2874 -0.232,-0.5133l0,-0.1232c0,-0.1027 -0.0232,-0.1848 -0.0464,-0.2259c-0.0232,-0.0411 -0.0696,-0.0616 -0.116,-0.0616c-0.3945,0 -0.7657,0.2259 -1.1138,0.6776c-0.348,0.4518 -0.5336,0.9446 -0.5336,1.4785l0,2.8132l1.485,0l0,0.3491l-4.4318,0z"/>
  <path id="svg_3" fill="#A7B1C2" d="m41.2778,16.5934l0.4175,0c-0.2088,0.6777 -0.5567,1.2116 -1.067,1.5607c-0.5104,0.3491 -1.1599,0.5339 -1.9486,0.5339c-0.9279,0 -1.6934,-0.2875 -2.2965,-0.8625c-0.6031,-0.575 -0.9047,-1.2732 -0.9047,-2.1151c0,-0.9241 0.3248,-1.6839 0.9975,-2.3c0.6727,-0.616 1.5078,-0.9241 2.5285,-0.9241c0.7423,0 1.3454,0.1438 1.7861,0.4313c0.4408,0.2875 0.6727,0.6776 0.6727,1.1499c0,0.2465 -0.0695,0.4313 -0.2319,0.575c-0.1624,0.1438 -0.3712,0.2259 -0.6495,0.2259c-0.2784,0 -0.5104,-0.0821 -0.6728,-0.2259c-0.1623,-0.1437 -0.2551,-0.3285 -0.2551,-0.575c0,-0.2053 0.0696,-0.4107 0.2088,-0.5749c0.1391,-0.1643 0.2087,-0.267 0.2087,-0.267c0,-0.1232 -0.0928,-0.2259 -0.2783,-0.308c-0.1856,-0.0822 -0.4408,-0.1027 -0.7423,-0.1027c-0.5568,0 -0.9743,0.1437 -1.2295,0.4518c-0.2552,0.308 -0.3711,0.8008 -0.3711,1.4785l0,2.1973c0,0.4518 0.1391,0.7803 0.3943,1.0062c0.2552,0.2259 0.6495,0.3491 1.1599,0.3491c0.5103,0 0.9974,-0.1643 1.4382,-0.4928c0.3943,-0.3081 0.6959,-0.7188 0.8351,-1.2116z"/>
  <path id="svg_4" fill="#A7B1C2" d="m47.8675,16.5924l0.4177,0c-0.2089,0.6982 -0.5801,1.2116 -1.0905,1.5607c-0.5104,0.3491 -1.1833,0.5339 -1.9953,0.5339c-0.9281,0 -1.6937,-0.2875 -2.3202,-0.8625c-0.6264,-0.575 -0.928,-1.2732 -0.928,-2.0946c0,-0.883 0.3248,-1.6428 0.9512,-2.2794c0.6265,-0.6366 1.3921,-0.9651 2.297,-0.9651c0.8816,0 1.6241,0.2464 2.2041,0.7187c0.58,0.4928 0.8817,1.0884 0.8817,1.8276l0,0.1232l-4.3387,0l0,1.7866c0,0.4107 0.1392,0.7393 0.4176,0.9857c0.2784,0.2464 0.6265,0.3696 1.0905,0.3696c0.58,0 1.0672,-0.1642 1.5081,-0.4723c0.4176,-0.2875 0.7424,-0.7187 0.9048,-1.2321zm-1.4849,-1.8482l0,-0.8008c0,-0.3697 -0.0928,-0.6572 -0.3016,-0.842c-0.2088,-0.1848 -0.5104,-0.2669 -0.928,-0.2669c-0.4177,0 -0.7193,0.0821 -0.9281,0.2669c-0.2088,0.1848 -0.3016,0.4518 -0.3016,0.8214l0,0.8009l2.4593,0l0,0.0205z"/>
  <path id="svg_5" fill="#A7B1C2" d="m0,18.9131c0,-0.2875 0,-0.5955 0.02321,-0.9241c0,-0.3286 0,-0.5339 0,-0.575l0,-6.3456c0,-0.041 0,-0.2464 0,-0.575c-0.02321,-0.3285 -0.02321,-0.63656 -0.02321,-0.92406l4.73438,0c0,0.32857 -0.02321,0.63656 -0.02321,0.98576c-0.02321,0.3285 -0.02321,0.5133 -0.02321,0.5339l0,6.325c0,0.0205 0,0.1848 0.02321,0.5339c0.02321,0.3286 0.02321,0.6572 0.02321,0.9652l-4.73438,0z"/>
  <path id="svg_6" fill="#A7B1C2" d="m8.42266,18.9336c0,-0.2875 0,-0.5955 0.0232,-0.9241c0,-0.3286 0,-0.5339 0,-0.575l0,-5.9348c0,-0.0411 0,-0.2259 0,-0.575c0,-0.3286 -0.0232,-0.5544 -0.0232,-0.8419c-0.58008,0.0205 -1.13696,-0.0206 -1.71703,0c-0.58008,0.0205 -0.88172,0 -0.90493,0c-0.13922,0 -0.25523,-0.0206 -0.30164,-0.0617c-0.06961,-0.04102 -0.09281,-0.10263 -0.09281,-0.18477c0,-0.10268 0.0232,-0.18482 0.09281,-0.2259c0.04641,-0.04107 0.18563,-0.0616 0.37125,-0.0616l9.88449,0c0.1857,0 0.3249,0.02053 0.3713,0.0616c0.0464,0.04108 0.0928,0.10268 0.0928,0.2259c0,0.08214 -0.0232,0.16427 -0.0928,0.18477c-0.0696,0.0411 -0.1624,0.0617 -0.3248,0.0617c-0.0232,0 -0.3249,0.0205 -0.8818,0c-0.58,-0.0206 -1.1369,0.0205 -1.717,0c0,0.2875 0,0.5133 -0.0232,0.8419c0,0.3286 0,0.5134 0,0.575l0,5.9143c0,0.041 0,0.2259 0,0.575c0,0.3285 0.0232,0.6571 0.0232,0.9241l-4.77984,0l0,0.0205z"/>
  <path id="svg_7" fill="#A7B1C2" d="m30.6285,0c-1.137,0 -2.7381,0.94464 -4.8264,2.83391c-2.0651,1.86873 -3.9446,4.06604 -5.6385,6.61244l-1.9259,0c-0.1624,0 -0.2552,0.02054 -0.3016,0.06161c-0.0465,0.04107 -0.0697,0.10268 -0.0697,0.22589c0,0.08214 0.0232,0.16429 0.0697,0.18482c0.0464,0.04107 0.1856,0.06161 0.2552,0.06161c0.1856,0 0.5569,0 0.7425,0c0.2553,0 0.5337,0 0.8353,0l-2.9932,4.82582c-2.6221,4.2509 -4.2695,6.8589 -4.9656,7.8035c-0.8586,1.1911 -1.85633,2.2384 -2.97011,3.1009c-1.8563,1.4375 -3.68939,2.1562 -5.49928,2.1562c-0.44087,0 -0.90495,-0.0616 -1.36902,-0.1848c-0.04641,-0.0205 -0.13923,-0.041 -0.25524,-0.041c-0.13923,0 -0.20884,0.0616 -0.20884,0.1848c0,0.2464 0.48728,0.3696 1.48504,0.3696c2.22756,0 4.64075,-0.9446 7.23955,-2.8544c1.9027,-1.3964 3.5734,-2.9777 5.012,-4.7643c1.4386,-1.7866 3.1789,-4.4357 5.1977,-7.9472l1.5546,-2.69019c1.3922,0 2.8309,0 3.7358,0c0.1856,0 0.5569,0 0.7425,0c0.0696,0 0.2089,-0.02054 0.2553,-0.06161c0.0464,-0.04107 0.0696,-0.10268 0.0696,-0.18482c0,-0.10268 -0.0232,-0.18482 -0.0696,-0.22589c-0.0464,-0.04107 -0.1393,-0.06161 -0.3017,-0.06161l-3.9214,0c2.6684,-1.49909 4.8264,-3.03926 6.497,-4.6205c1.6939,-1.60177 2.5524,-2.93658 2.5524,-3.98389c-0.0232,-0.51339 -0.3248,-0.80089 -0.9281,-0.80089zm-2.0883,4.55889c-1.8331,1.74552 -3.8519,3.28569 -6.0562,4.6205c1.7635,-2.85444 3.0861,-4.80532 3.9678,-5.85263c1.7635,-2.07409 3.1557,-3.10087 4.1767,-3.10087c0.4409,0 0.6729,0.20536 0.6729,0.59553c-0.0232,0.73928 -0.9282,1.99195 -2.7612,3.73747z"/>
 </g>
</svg>