<svg width="22" height="22" viewBox="0 0 22 22" fill="none" xmlns="http://www.w3.org/2000/svg">
<path d="M8.24992 18.0089C8.92178 18.7701 9.90478 19.2502 10.9999 19.2502C12.0951 19.2502 13.0781 18.7701 13.7499 18.0089M14.6666 1.77441C16.8547 2.86179 18.4915 4.89202 19.0455 7.33352M16.4975 12.0827V9.16694C16.4975 6.12151 14.0453 3.66694 10.9999 3.66694C7.95449 3.66694 5.46909 6.01687 5.46909 9.16694V12.0629C5.46909 12.5058 5.40006 12.9458 5.26465 13.366L4.58772 15.4666C4.56919 15.5241 4.61058 15.5835 4.66919 15.5835H17.2912C17.3531 15.5835 17.3971 15.5231 17.3781 15.4641L16.6966 13.3493C16.5647 12.94 16.4975 12.5127 16.4975 12.0827Z" stroke="white" stroke-width="1.67" stroke-linecap="round"/>
</svg>
