<svg width="24" height="24" viewBox="0 0 24 24" fill="none" xmlns="http://www.w3.org/2000/svg">
<g clip-path="url(#clip0_557_1562)">
<path d="M20.0297 6.76406L14.9859 1.72031C14.8453 1.57969 14.6555 1.5 14.4562 1.5H4.5C4.08516 1.5 3.75 1.83516 3.75 2.25V21.75C3.75 22.1648 4.08516 22.5 4.5 22.5H19.5C19.9148 22.5 20.25 22.1648 20.25 21.75V7.29609C20.25 7.09688 20.1703 6.90469 20.0297 6.76406ZM14.1094 3.22969L18.5203 7.64062H14.1094V3.22969ZM18.5625 20.8125H5.4375V3.1875H12.5156V8.25C12.5156 8.51107 12.6193 8.76145 12.8039 8.94606C12.9885 9.13066 13.2389 9.23438 13.5 9.23438H18.5625V20.8125Z" fill="#66809E"/>
<path d="M14.4355 14.2646V14.6309C14.4355 15.168 14.3639 15.6514 14.2207 16.0811C14.0775 16.5075 13.874 16.8704 13.6104 17.1699C13.3467 17.4694 13.0326 17.6989 12.668 17.8584C12.3034 18.0179 11.8981 18.0977 11.4521 18.0977C11.0127 18.0977 10.609 18.0179 10.2412 17.8584C9.87663 17.6989 9.56087 17.4694 9.29395 17.1699C9.02702 16.8704 8.82031 16.5075 8.67383 16.0811C8.52734 15.6514 8.4541 15.168 8.4541 14.6309V14.2646C8.4541 13.7243 8.52734 13.2409 8.67383 12.8145C8.82031 12.388 9.02539 12.0251 9.28906 11.7256C9.55273 11.4229 9.86686 11.1917 10.2314 11.0322C10.5993 10.8727 11.0029 10.793 11.4424 10.793C11.8883 10.793 12.2936 10.8727 12.6582 11.0322C13.0228 11.1917 13.3369 11.4229 13.6006 11.7256C13.8675 12.0251 14.0726 12.388 14.2158 12.8145C14.3623 13.2409 14.4355 13.7243 14.4355 14.2646ZM13.0781 14.6309V14.2549C13.0781 13.8675 13.0423 13.5273 12.9707 13.2344C12.8991 12.9382 12.7933 12.6891 12.6533 12.4873C12.5133 12.2855 12.3408 12.1341 12.1357 12.0332C11.9307 11.929 11.6995 11.877 11.4424 11.877C11.182 11.877 10.9508 11.929 10.749 12.0332C10.5505 12.1341 10.3812 12.2855 10.2412 12.4873C10.1012 12.6891 9.99382 12.9382 9.91895 13.2344C9.84733 13.5273 9.81152 13.8675 9.81152 14.2549V14.6309C9.81152 15.015 9.84733 15.3551 9.91895 15.6514C9.99382 15.9476 10.1012 16.1982 10.2412 16.4033C10.3844 16.6051 10.557 16.7581 10.7588 16.8623C10.9606 16.9665 11.1917 17.0186 11.4521 17.0186C11.7126 17.0186 11.9437 16.9665 12.1455 16.8623C12.3473 16.7581 12.5166 16.6051 12.6533 16.4033C12.7933 16.1982 12.8991 15.9476 12.9707 15.6514C13.0423 15.3551 13.0781 15.015 13.0781 14.6309Z" fill="#66809E"/>
</g>
<defs>
<clipPath id="clip0_557_1562">
<rect width="24" height="24" fill="white"/>
</clipPath>
</defs>
</svg>
