<svg width="20" height="20" viewBox="0 0 20 20" fill="none" xmlns="http://www.w3.org/2000/svg">
<rect width="20" height="20" rx="4" fill="#41AE49"/>
<path d="M14.8776 7.0905L12.0755 4.28841C11.9974 4.21029 11.8919 4.16602 11.7812 4.16602H6.24998C6.01951 4.16602 5.83331 4.35221 5.83331 4.58268V15.416C5.83331 15.6465 6.01951 15.8327 6.24998 15.8327H14.5833C14.8138 15.8327 15 15.6465 15 15.416V7.38607C15 7.27539 14.9557 7.16862 14.8776 7.0905ZM11.5885 5.12695L14.039 7.57747H11.5885V5.12695ZM14.0625 14.8952H6.77081V5.10352H10.7031V7.91602C10.7031 8.06106 10.7607 8.20016 10.8633 8.30271C10.9658 8.40527 11.1049 8.46289 11.25 8.46289H14.0625V14.8952Z" fill="white"/>
<path d="M12.1237 11.5098V11.7539C12.1237 12.112 12.0759 12.4342 11.9804 12.7207C11.885 13.005 11.7493 13.247 11.5735 13.4466C11.3978 13.6463 11.1883 13.7993 10.9453 13.9056C10.7022 14.0119 10.4321 14.0651 10.1347 14.0651C9.84178 14.0651 9.57268 14.0119 9.32745 13.9056C9.0844 13.7993 8.87389 13.6463 8.69594 13.4466C8.51799 13.247 8.38019 13.005 8.28253 12.7207C8.18488 12.4342 8.13605 12.112 8.13605 11.7539V11.5098C8.13605 11.1495 8.18488 10.8273 8.28253 10.543C8.38019 10.2587 8.51691 10.0167 8.69269 9.81706C8.86847 9.61523 9.07789 9.46115 9.32094 9.35482C9.56617 9.24848 9.83527 9.19531 10.1282 9.19531C10.4255 9.19531 10.6957 9.24848 10.9388 9.35482C11.1818 9.46115 11.3913 9.61523 11.567 9.81706C11.745 10.0167 11.8817 10.2587 11.9772 10.543C12.0748 10.8273 12.1237 11.1495 12.1237 11.5098ZM11.2187 11.7539V11.5033C11.2187 11.245 11.1949 11.0182 11.1471 10.8229C11.0994 10.6254 11.0288 10.4594 10.9355 10.3249C10.8422 10.1903 10.7272 10.0894 10.5905 10.0221C10.4538 9.95269 10.2997 9.91797 10.1282 9.91797C9.95462 9.91797 9.80054 9.95269 9.666 10.0221C9.53362 10.0894 9.42077 10.1903 9.32745 10.3249C9.23414 10.4594 9.16252 10.6254 9.11261 10.8229C9.06487 11.0182 9.041 11.245 9.041 11.5033V11.7539C9.041 12.01 9.06487 12.2368 9.11261 12.4342C9.16252 12.6317 9.23414 12.7988 9.32745 12.9355C9.42294 13.0701 9.53796 13.1721 9.67251 13.2415C9.80705 13.311 9.96113 13.3457 10.1347 13.3457C10.3084 13.3457 10.4624 13.311 10.597 13.2415C10.7315 13.1721 10.8444 13.0701 10.9355 12.9355C11.0288 12.7988 11.0994 12.6317 11.1471 12.4342C11.1949 12.2368 11.2187 12.01 11.2187 11.7539Z" fill="white"/>
</svg>
