<svg width="36" height="36" viewBox="0 0 36 36" fill="none" xmlns="http://www.w3.org/2000/svg">
<path d="M18.9033 5C18.7373 5 18.573 5.0327 18.4196 5.09622C18.2662 5.15975 18.1269 5.25286 18.0095 5.37024C17.8921 5.48762 17.799 5.62697 17.7355 5.78033C17.672 5.9337 17.6393 6.09807 17.6393 6.26407V16.3766C17.6393 16.5426 17.672 16.707 17.7355 16.8604C17.799 17.0137 17.8921 17.1531 18.0095 17.2705C18.1269 17.3879 18.2662 17.481 18.4196 17.5445C18.573 17.608 18.7373 17.6407 18.9033 17.6407H29.0159C29.3512 17.6407 29.6727 17.5075 29.9097 17.2705C30.1468 17.0334 30.28 16.7119 30.28 16.3766C30.28 13.3594 29.0814 10.4657 26.9478 8.33214C24.8143 6.19861 21.9206 5 18.9033 5ZM20.1674 15.1126V7.61663C22.0587 7.88918 23.811 8.76665 25.1622 10.1178C26.5133 11.469 27.3908 13.2213 27.6634 15.1126H20.1674Z" fill="white"/>
<path d="M28.7884 20.2448C28.6316 20.1888 28.4652 20.1642 28.2988 20.1727C28.1325 20.1811 27.9695 20.2224 27.8191 20.294C27.6687 20.3657 27.534 20.4663 27.4227 20.5902C27.3114 20.7141 27.2256 20.8588 27.1704 21.0159C26.6007 22.6262 25.6325 24.066 24.3559 25.201C23.0793 26.3359 21.5361 27.129 19.8702 27.5062C18.2042 27.8835 16.4699 27.8326 14.8289 27.3583C13.188 26.8841 11.6939 26.0019 10.4861 24.794C9.27827 23.5862 8.39607 22.0921 7.9218 20.4512C7.44754 18.8102 7.39665 17.0759 7.7739 15.4099C8.15115 13.744 8.94423 12.2008 10.0792 10.9242C11.2141 9.64767 12.6539 8.67939 14.2642 8.10974C14.581 7.9991 14.8409 7.76715 14.9867 7.4649C15.1325 7.16265 15.1523 6.81486 15.0416 6.49805C14.931 6.18123 14.699 5.92134 14.3968 5.77555C14.0945 5.62976 13.7467 5.61001 13.4299 5.72064C11.4163 6.43203 9.61576 7.64199 8.19631 9.23757C6.77686 10.8332 5.7848 12.7623 5.31272 14.8451C4.84063 16.9278 4.90392 19.0963 5.49666 21.1479C6.08941 23.1996 7.19229 25.0677 8.70238 26.5777C10.2125 28.0878 12.0805 29.1907 14.1322 29.7835C16.1839 30.3762 18.3523 30.4395 20.435 29.9674C22.5178 29.4953 24.447 28.5033 26.0426 27.0838C27.6381 25.6644 28.8481 23.8638 29.5595 21.8502C29.6688 21.535 29.6491 21.1894 29.5047 20.8887C29.3602 20.5879 29.1028 20.3565 28.7884 20.2448Z" fill="white"/>
</svg>
