<svg width="12" height="12" viewBox="0 0 12 12" fill="none" xmlns="http://www.w3.org/2000/svg">
<path fill-rule="evenodd" clip-rule="evenodd" d="M6.45815 9.86362L10.1372 6.11379L6.45815 2.13736C6.10165 1.77399 6.10698 1.2084 6.47048 0.851751C6.83373 0.49531 7.3994 0.500601 7.7559 0.86396L11.4351 4.61379C11.6204 4.80254 11.7618 5.01962 11.8595 5.2652C11.9532 5.50078 12.0001 5.74595 12.0001 6.00045C12.0001 6.25495 11.9532 6.49995 11.8595 6.73554C11.7618 6.98112 11.6204 7.19837 11.4351 7.3872L7.7559 11.1368C7.3994 11.5004 6.83373 11.5056 6.47048 11.1492C6.10698 10.7925 6.10165 10.227 6.45815 9.86362Z" fill="#A7B1C2"/>
<path d="M10.7734 5.2207H1.53097C1.07073 5.2207 0.697632 5.5938 0.697632 6.05404V6.20555C0.697632 6.66579 1.07073 7.03888 1.53097 7.03888H10.7734C11.2336 7.03888 11.6067 6.66579 11.6067 6.20555V6.05404C11.6067 5.5938 11.2336 5.2207 10.7734 5.2207Z" fill="#A7B1C2" fill-opacity="0.5"/>
</svg>
