<svg width="40" height="41" viewBox="0 0 40 41" fill="none" xmlns="http://www.w3.org/2000/svg">
<path opacity="0.3" d="M31.6665 37.1666H8.33317C7.33317 37.1666 6.6665 36.4999 6.6665 35.4999V5.49992C6.6665 4.49992 7.33317 3.83325 8.33317 3.83325H23.3332L33.3332 13.8333V35.4999C33.3332 36.4999 32.6665 37.1666 31.6665 37.1666ZM24.1665 20.4999L21.1665 15.9999C20.4998 15.3333 19.4998 15.3333 18.8332 15.9999L16.6665 20.4999H19.1665V28.8333C19.1665 29.8333 18.9998 30.4999 19.9998 30.4999C20.9998 30.4999 20.8332 29.8333 20.8332 28.8333V20.4999H24.1665Z" fill="#DAE0E6"/>
<path d="M21.6668 19.6667V30.3926C21.6668 30.9571 21.0002 32.1667 20.0002 32.1667C19.0002 32.1667 18.3335 30.9571 18.3335 30.3926V19.6667H21.6668Z" fill="#DAE0E6"/>
<path d="M13.7626 19.5686C13.0492 20.1692 13.4741 21.3334 14.4068 21.3334H25.5935C26.5263 21.3334 26.9512 20.1692 26.2377 19.5686L20.7293 14.9299C20.3127 14.579 19.6877 14.579 19.271 14.9299L13.7626 19.5686Z" fill="#DAE0E6"/>
<path d="M25.0002 13.8333H33.3335L23.3335 3.83325V12.1666C23.3335 13.1666 24.0002 13.8333 25.0002 13.8333Z" fill="#DAE0E6"/>
</svg>
