<svg width="80" height="80" viewBox="0 0 80 80" fill="none" xmlns="http://www.w3.org/2000/svg">
<path d="M32.1801 12.0099C33.7267 7.06988 36.4134 4.95988 41.7134 6.48988L41.8467 6.53321C43.3967 7.00988 45.1801 7.91655 46.8534 9.43655C49.4867 11.8365 51.0534 15.1632 51.0534 19.3432C51.0534 23.0765 50.8367 25.3832 50.2034 27.9999L50.1834 28.0732H63.8934C72.2734 28.0732 75.6034 33.7265 73.4967 43.1265L73.3167 43.8965L72.8901 45.3032L71.2801 50.5465L70.5267 52.9432L69.8101 55.1832L68.4767 59.2165L67.5667 61.8432L67.0034 63.4099L66.2234 65.4699L65.7467 66.6599C63.4401 72.2265 58.6801 74.7832 52.4567 74.0499L22.2134 71.7999C22.0212 71.7898 21.829 71.7809 21.6367 71.7732L20.4367 71.7466H17.0334L16.0567 71.7299L15.2767 71.6965L14.6267 71.6366L14.3367 71.5932L13.7801 71.4832L12.8801 71.2466C8.24341 69.8699 5.83008 65.9399 5.83008 60.3399V38.1899C5.83008 31.1165 10.1234 27.0799 17.4367 27.0799L23.3567 27.0765L23.7634 26.7665C26.0776 24.8577 27.9949 22.5134 29.4067 19.8665L29.8834 18.9332C30.3601 17.9532 30.7501 16.9265 31.1201 15.7299L31.1801 15.5265L32.1801 12.0099ZM39.1067 12.6399C38.9634 12.6065 38.9001 12.6532 38.8301 12.8565L38.5267 14.0232L37.6934 17.0265L37.4934 17.6932C37.0664 19.1172 36.5292 20.5059 35.8867 21.8465C34.443 24.8048 32.5268 27.5081 30.2134 29.8499C29.0398 31.0668 27.7503 32.1664 26.3634 33.1332L26.7934 32.8265V65.4366L53.0967 67.4165C56.3701 67.7999 58.2234 66.9399 59.3634 64.5965L59.5867 64.1099L60.0367 62.9865L60.7801 61.0199L61.3201 59.5132L62.1967 56.9765L62.8267 55.0965L64.1834 50.8965L65.6834 46.1032L66.8901 42.1299C68.3734 36.1865 67.5001 34.7399 63.8934 34.7399H46.8867C46.2189 34.7403 45.5606 34.581 44.9668 34.2754C44.373 33.9698 43.8609 33.5267 43.4731 32.9829C43.0853 32.4392 42.833 31.8107 42.7374 31.1497C42.6418 30.4888 42.7056 29.8145 42.9234 29.1832L43.0934 28.6832L43.3534 27.8299C44.1567 25.0365 44.3867 23.2099 44.3867 19.3432C44.3867 15.5599 42.2867 13.6432 39.9301 12.9165L39.6401 12.8265L39.1067 12.6399ZM20.1267 33.7432H17.4401C13.7201 33.7432 12.5001 34.8932 12.5001 38.1899V60.3399C12.5001 63.3099 13.2767 64.5065 15.1401 64.9499L15.2567 64.9765L15.5501 65.0199L15.9501 65.0532L16.8534 65.0732H19.0867L20.1267 65.0799V33.7465V33.7432Z" fill="#2D8A39"/>
</svg>
