<?xml version="1.0" standalone="no"?><!DOCTYPE svg PUBLIC "-//W3C//DTD SVG 1.1//EN" "http://www.w3.org/Graphics/SVG/1.1/DTD/svg11.dtd"><svg t="1688376543460" class="icon" viewBox="0 0 1024 1024" version="1.1" xmlns="http://www.w3.org/2000/svg" p-id="2311" xmlns:xlink="http://www.w3.org/1999/xlink" width="200" height="200"><path d="M544.064 472a32 32 0 0 1 8.096-21.248L696.8 288H327.36l144.64 162.752a32 32 0 0 1 8.096 21.248V704l64-48v-184z m64 200a32 32 0 0 1-12.8 25.6l-128 96a32 32 0 0 1-51.2-25.6v-283.84L232.16 277.248C213.76 256.64 228.448 224 256.064 224h512c27.616 0 42.24 32.64 23.904 53.248l-183.904 206.912V672z" fill="#202425" p-id="2312"></path></svg>