<?xml version="1.0" standalone="no"?><!DOCTYPE svg PUBLIC "-//W3C//DTD SVG 1.1//EN" "http://www.w3.org/Graphics/SVG/1.1/DTD/svg11.dtd"><svg t="1689162986913" class="icon" viewBox="0 0 1024 1024" version="1.1" xmlns="http://www.w3.org/2000/svg" p-id="2288" xmlns:xlink="http://www.w3.org/1999/xlink" width="200" height="200"><path d="M511.53408 274.343253l0.498347-0.003413 0.069973-0.07168c38.587733 0 69.336747 14.946987 92.17024 38.606507 25.070933 25.97888 40.041813 62.45888 44.880213 100.7104 14.091947 111.38048 42.775893 139.040427 57.41568 153.156266 3.570347 3.442347 6.521173 6.28736 9.007787 9.588054 6.913707 9.17504 11.057493 18.17088 12.837547 26.944853 4.432213 21.8368-5.32992 39.278933-23.616854 53.16608-14.726827 11.183787-35.316053 19.83488-57.709226 26.461867-53.848747 15.940267-121.156267 21.00224-135.517867 20.75648-14.373547 0.247467-81.737387-4.814507-135.594667-20.75648-22.39488-6.628693-42.980693-15.279787-57.70752-26.463574-18.286933-13.88544-28.049067-31.327573-23.61856-53.164373 1.78176-8.773973 5.925547-17.77152 12.839254-26.944853 2.4832-3.295573 5.43744-6.147413 9.007786-9.58976 14.639787-14.11584 43.322027-41.7792 57.412267-153.15456 4.8384-38.25152 19.80928-74.73152 44.880213-100.7104 22.833493-23.65952 53.582507-38.606507 92.17024-38.606507l0.069974 0.07168 0.505173 0.003413z m0.56832 35.979947h-1.143467v0.07168c-27.902293 0-49.96608 10.62912-66.205013 27.455147-19.498667 20.201813-31.233707 49.319253-35.145387 80.25088-15.689387 124.02688-50.413227 157.513387-68.13696 174.603946-2.321067 2.23744-4.23936 4.089173-5.195093 5.357227-3.621547 4.804267-5.659307 8.866133-6.350507 12.26752-1.23392 6.080853 2.83648 11.968853 10.074454 17.46432 10.794667 8.19712 27.429547 14.99648 46.13632 20.534613 50.624853 14.984533 112.837973 19.667627 124.904106 19.33824h0.91648c12.076373 0.32768 74.338987-4.352 124.96896-19.33824 18.706773-5.536427 35.34336-12.335787 46.138027-20.532906 7.23456-5.49376 11.306667-11.383467 10.072747-17.466027-0.689493-3.401387-2.72896-7.463253-6.3488-12.26752-0.955733-1.268053-2.874027-3.11808-5.195094-5.35552-17.723733-17.09056-52.447573-50.573653-68.140373-174.605653-3.91168-30.931627-15.64672-60.049067-35.145387-80.25088-16.238933-16.826027-38.30272-27.455147-66.205013-27.455147v-0.07168z" p-id="2289"></path><path d="M571.475627 692.16256c-1.26976 22.26688-6.30272 41.977173-15.679147 56.24832-10.195627 15.515307-24.772267 24.692053-44.274347 24.692053-19.488427 0-34.005333-9.15456-44.168533-24.634026-9.3696-14.26944-14.399147-33.972907-15.761067-56.236374l35.98336-2.116266c0.9984 16.31232 4.150613 29.938347 9.83552 38.596266 3.408213 5.19168 8.065707 8.26368 14.11072 8.26368 6.080853 0 10.781013-3.094187 14.216534-8.321706 5.6832-8.649387 8.82688-22.22592 9.7536-38.468267l35.98336 1.97632zM756.852053 800.098987c-6.97344 7.0912-18.379093 7.185067-25.470293 0.211626-7.0912-6.97344-7.185067-18.379093-0.211627-25.470293 27.71968-28.284587 50.008747-61.83936 65.179307-98.981547l-0.059733-0.023893c14.624427-35.812693 22.68672-75.035307 22.68672-116.1728 0-42.20416-8.4992-82.409813-23.872854-118.99392-16.006827-38.089387-39.41376-72.244907-68.394666-100.64896-7.0912-6.97344-7.185067-18.379093-0.211627-25.470293 6.97344-7.0912 18.379093-7.185067 25.470293-0.211627 32.45056 31.803733 58.610347 69.935787 76.439894 112.360107 17.191253 40.910507 26.69568 85.838507 26.69568 132.964693 0 45.873493-9.01632 89.67168-25.3696 129.72032h-0.069974c-17.00864 41.649493-41.9072 79.182507-72.81152 110.716587zM271.09376 314.33728c7.0912-6.97344 18.496853-6.879573 25.470293 0.211627 6.97344 7.0912 6.879573 18.496853-0.211626 25.470293-28.980907 28.404053-52.38784 62.559573-68.394667 100.64896-15.373653 36.584107-23.872853 76.78976-23.872853 118.99392 0 41.137493 8.062293 80.360107 22.68672 116.1728l-0.059734 0.023893c15.17056 37.142187 37.459627 70.69696 65.179307 98.981547 6.97344 7.0912 6.879573 18.496853-0.211627 25.470293-7.0912 6.97344-18.496853 6.879573-25.470293-0.211626-30.90432-31.53408-55.80288-69.067093-72.81152-110.716587h-0.069973c-16.35328-40.04864-25.3696-83.846827-25.3696-129.72032 0-47.126187 9.504427-92.054187 26.69568-132.964693 17.829547-42.42432 43.989333-80.556373 76.439893-112.360107z" p-id="2290"></path><path d="M857.586347 900.83328c-6.97344 7.0912-18.379093 7.185067-25.470294 0.211627-7.0912-6.97344-7.185067-18.379093-0.211626-25.470294 40.84224-41.419093 73.71776-90.69568 96.129706-145.338026 21.5296-52.493653 33.404587-110.086827 33.404587-170.574507 0-61.561173-12.335787-120.18688-34.6624-173.5424-23.20896-55.46496-57.198933-105.284267-99.334827-146.83136-7.0912-6.97344-7.185067-18.379093-0.211626-25.470293 6.97344-7.0912 18.379093-7.185067 25.470293-0.211627 45.566293 44.929707 82.30912 98.771627 107.380053 158.685867 24.144213 57.700693 37.485227 121.002667 37.485227 187.369813 0 65.107627-12.878507 127.332693-36.227413 184.261973-24.210773 59.02848-59.69408 112.228693-103.75168 156.909227zM170.361173 213.6064c7.0912-6.97344 18.496853-6.879573 25.470294 0.211627 6.97344 7.0912 6.879573 18.496853-0.211627 25.470293-42.135893 41.547093-76.125867 91.3664-99.334827 146.83136-22.326613 53.35552-34.6624 111.981227-34.6624 173.5424 0 60.48768 11.874987 118.080853 33.404587 170.574507 22.411947 54.642347 55.287467 103.918933 96.129707 145.338026 6.97344 7.0912 6.879573 18.496853-0.211627 25.470294-7.0912 6.97344-18.496853 6.879573-25.470293-0.211627-44.0576-44.680533-79.540907-97.880747-103.75168-156.909227-23.348907-56.92928-36.227413-119.154347-36.227414-184.261973 0-66.367147 13.341013-129.66912 37.485227-187.369813 25.070933-59.91424 61.81376-113.75616 107.380053-158.685867z" p-id="2291"></path></svg>