<?xml version="1.0" standalone="no"?><!DOCTYPE svg PUBLIC "-//W3C//DTD SVG 1.1//EN" "http://www.w3.org/Graphics/SVG/1.1/DTD/svg11.dtd"><svg t="1688918884196" class="icon" viewBox="0 0 1024 1024" version="1.1" xmlns="http://www.w3.org/2000/svg" p-id="5059" xmlns:xlink="http://www.w3.org/1999/xlink" width="200" height="200"><path d="M512 46.464241c-243.993037 0-441.788915 197.720154-441.788915 441.619046s197.795878 441.62007 441.788915 441.62007 441.788915-197.720154 441.788915-441.62007S755.993037 46.464241 512 46.464241zM649.713478 298.788014l24.263613-46.260603 24.267706 46.260603 49.354058 9.967002-34.356482 38.552038 6.237051 52.423977-45.502333-22.433942-45.49824 22.433942 6.232958-52.423977-34.352389-38.552038L649.713478 298.788014zM310.028009 298.788014l24.267706-46.260603 24.263613 46.260603 49.354058 9.967002-34.356482 38.552038 6.237051 52.423977-45.49824-22.433942-45.502333 22.433942 6.232958-52.423977-34.352389-38.552038L310.028009 298.788014zM512 545.514301c-113.612571 0-210.970946 68.729338-251.885797 166.413124 21.844517-117.89613 126.303614-207.250204 251.885797-207.250204s230.04128 89.354074 251.885797 207.250204C722.970946 614.243639 625.612571 545.514301 512 545.514301z" fill="#FF4E00" p-id="5060"></path></svg>