<?xml version="1.0" standalone="no"?><!DOCTYPE svg PUBLIC "-//W3C//DTD SVG 1.1//EN" "http://www.w3.org/Graphics/SVG/1.1/DTD/svg11.dtd"><svg t="1717661303803" class="icon" viewBox="0 0 1536 1024" version="1.1" xmlns="http://www.w3.org/2000/svg" p-id="13266" xmlns:xlink="http://www.w3.org/1999/xlink" width="300" height="200"><path d="M0 0h1536v1024H0z" fill="#DE2910" p-id="13267"></path><path d="M288 172.8L320 268.8h96l-76.8 57.6 32 96-83.2-57.6-83.2 57.6 32-96-76.8-57.6H256l32-96z m256-44.8v32l32 12.8-38.4 6.4v32l-19.2-25.6-32 6.4 25.6-25.6-19.2-25.6 32 12.8 19.2-25.6z m108.8 102.4l-12.8 32 25.6 25.6-38.4-12.8-12.8 32-6.4-32-32-6.4 32-12.8-6.4-32 25.6 25.6 25.6-19.2z m-32 134.4l12.8 32h32l-25.6 12.8 12.8 32-32-19.2-25.6 19.2 12.8-32-32-19.2h32l12.8-25.6zM544 460.8v32l32 12.8-38.4 6.4v32l-19.2-25.6-32 6.4 25.6-25.6-19.2-25.6 32 12.8 19.2-25.6z" fill="#FFDE00" p-id="13268"></path></svg>