<svg width="20" height="20" xmlns="http://www.w3.org/2000/svg" fill="none">

 <g>
  <title>Layer 1</title>
  <path id="svg_1" fill-opacity="0.01" fill="white" d="m0,0l20,0l0,20l-20,0l0,-20z"/>
  <path id="svg_2" stroke-linejoin="round" stroke-linecap="round" stroke="black" fill="white" d="m10.0003,8.33464c1.841,0 3.3334,-1.49239 3.3334,-3.33334c0,-1.84095 -1.4924,-3.33333 -3.3334,-3.33333c-1.84092,0 -3.33331,1.49238 -3.33331,3.33333c0,1.84095 1.49239,3.33334 3.33331,3.33334z"/>
  <path id="svg_3" stroke-linejoin="round" stroke-linecap="round" stroke="black" d="m17.5,18.334c0,-4.1421 -3.3579,-7.5 -7.5,-7.5c-4.14212,0 -7.5,3.3579 -7.5,7.5"/>
  <path id="svg_4" stroke-linejoin="round" stroke-linecap="round" stroke="black" fill="white" d="m9.99967,18.334l1.66663,-2.0833l-1.66663,-5.4167l-1.66666,5.4167l1.66666,2.0833z"/>
 </g>
</svg>