<svg width="24" height="24" xmlns="http://www.w3.org/2000/svg" fill="none">
 <defs>
  <clipPath id="clip0_1252_945">
   <rect id="svg_1" fill="white" height="24" width="24"/>
  </clipPath>
  <clipPath id="clip1_1252_945">
   <rect id="svg_2" fill="white" height="24" width="24"/>
  </clipPath>
 </defs>
 <g>
  <title>Layer 1</title>
  <g id="svg_3" clip-path="url(#clip0_1252_945)">
   <g id="svg_4" clip-path="url(#clip1_1252_945)">
    <path id="svg_5" fill="#11CCC1" d="m2.25,13.875l0,9l19.5,0l0,-13.875l-9.75,-8.25l-9.75,7.875l0,5.25z"/>
    <path id="svg_6" fill="#8493A5" d="m11.9999,0.75l-1.1513,0.93l8.6513,7.32l0,13.875l2.25,0l0,-13.875l-9.75,-8.25z" opacity="0.1"/>
    <path id="svg_7" fill="#ECECEC" d="m9.75,12.75l4.5,0c0.3978,0 0.7794,0.158 1.0607,0.4393c0.2813,0.2813 0.4393,0.6629 0.4393,1.0607l0,9l-7.5,0l0,-9c0,-0.3978 0.15804,-0.7794 0.43934,-1.0607c0.2813,-0.2813 0.66284,-0.4393 1.06066,-0.4393z"/>
    <path id="svg_8" fill="#8493A5" d="m14.25,12.75l-2.25,0c0.3978,0 0.7794,0.158 1.0607,0.4393c0.2813,0.2813 0.4393,0.6629 0.4393,1.0607l0,9l2.25,0l0,-9c0,-0.3978 -0.158,-0.7794 -0.4393,-1.0607c-0.2813,-0.2813 -0.6629,-0.4393 -1.0607,-0.4393z" opacity="0.1"/>
    <path id="svg_9" fill="#11CCC1" d="m11.25,18.75c0.4142,0 0.75,-0.3358 0.75,-0.75c0,-0.4142 -0.3358,-0.75 -0.75,-0.75c-0.4142,0 -0.75,0.3358 -0.75,0.75c0,0.4142 0.3358,0.75 0.75,0.75z"/>
    <path id="svg_10" fill="#8493A5" d="m23.73,9.17276l-3.855,-3.21l0,-2.5875c0,-0.19891 -0.0791,-0.38968 -0.2197,-0.53033c-0.1407,-0.14065 -0.3314,-0.21967 -0.5303,-0.21967c-0.1989,0 -0.3897,0.07902 -0.5304,0.21967c-0.1406,0.14065 -0.2196,0.33142 -0.2196,0.53033l0,1.335l-4.935,-4.11c-0.4043,-0.33675 -0.9139,-0.52116 -1.44,-0.52116c-0.5262,0 -1.0357,0.18441 -1.44,0.52116l-10.29004,8.5725c-0.15316,0.1273 -0.24948,0.31024 -0.26776,0.50856c-0.01829,0.19831 0.04296,0.39578 0.17026,0.54898c0.12731,0.1531 0.31024,0.2494 0.50856,0.2677c0.19832,0.0183 0.39578,-0.0429 0.54894,-0.1702l10.29004,-8.57629c0.1347,-0.11225 0.3046,-0.17372 0.48,-0.17372c0.1754,0 0.3452,0.06147 0.48,0.17372l8.52,7.09875l0,12.90004c0,0.1989 -0.0791,0.3896 -0.2197,0.5303c-0.1407,0.1406 -0.3314,0.2197 -0.5303,0.2197l-3.75,0l0,-8.25c0,-0.5968 -0.2371,-1.1691 -0.659,-1.591c-0.422,-0.422 -0.9943,-0.659 -1.591,-0.659l-4.50004,0c-0.59673,0 -1.16903,0.237 -1.59099,0.659c-0.42195,0.4219 -0.65901,0.9942 -0.65901,1.591l0,8.25l-3.75,0c-0.19891,0 -0.38968,-0.0791 -0.53033,-0.2197c-0.14065,-0.1407 -0.21967,-0.3314 -0.21967,-0.5303l0,-9c0,-0.199 -0.07902,-0.3897 -0.21967,-0.5304c-0.14065,-0.1406 -0.33142,-0.2196 -0.53033,-0.2196c-0.19891,0 -0.38968,0.079 -0.53033,0.2196c-0.14065,0.1407 -0.21967,0.3314 -0.21967,0.5304l0,9c0,0.5967 0.23706,1.169 0.65901,1.5909c0.42196,0.422 0.99426,0.6591 1.59099,0.6591l16.50004,0c0.5967,0 1.169,-0.2371 1.591,-0.6591c0.4219,-0.4219 0.659,-0.9942 0.659,-1.5909l0,-11.6475l0.27,0.225c0.1349,0.1118 0.3047,0.1728 0.48,0.1725c0.1544,0.0003 0.3052,-0.0471 0.4317,-0.1357c0.1265,-0.0886 0.2225,-0.2141 0.275,-0.3593c0.0526,-0.14525 0.059,-0.30315 0.0184,-0.45216c-0.0406,-0.149 -0.1262,-0.28185 -0.2451,-0.38038zm-14.73004,13.32754l0,-8.25c0,-0.199 0.07902,-0.3897 0.21967,-0.5304c0.14065,-0.1406 0.33142,-0.2196 0.53033,-0.2196l4.50004,0c0.1989,0 0.3896,0.079 0.5303,0.2196c0.1406,0.1407 0.2197,0.3314 0.2197,0.5304l0,8.25l-6.00004,0z"/>
   </g>
  </g>
 </g>
</svg>