<?xml version="1.0" standalone="no"?><!DOCTYPE svg PUBLIC "-//W3C//DTD SVG 1.1//EN" "http://www.w3.org/Graphics/SVG/1.1/DTD/svg11.dtd"><svg t="1718101476314" class="icon" viewBox="0 0 1024 1024" version="1.1" xmlns="http://www.w3.org/2000/svg" p-id="5903" xmlns:xlink="http://www.w3.org/1999/xlink" width="200" height="200"><path d="M694.857143 313.782857C665.014857 129.462857 594.358857 0 512.219429 0 430.08 0 359.350857 129.462857 329.435429 313.782857H694.857143zM366.006857 21.430857A512.585143 512.585143 0 0 0 39.862857 313.782857h223.085714c17.92-117.467429 52.589714-222.573714 102.985143-292.352z m618.496 292.352A513.097143 513.097143 0 0 0 658.139429 21.430857c50.322286 69.778286 85.065143 174.811429 103.204571 292.352h223.085714zM247.881143 512c0-44.324571 2.486857-88.868571 6.802286-132.096H17.773714A514.998857 514.998857 0 0 0 0 512c0 45.787429 6.582857 89.819429 17.773714 132.096h236.617143a1417.069714 1417.069714 0 0 1-6.582857-132.096z m65.974857 0c0 45.860571 2.56 89.819429 6.875429 132.096h382.537142c4.388571-42.422857 6.875429-86.308571 6.875429-132.096 0-45.714286-2.486857-89.819429-6.875429-132.096h-382.537142c-4.388571 42.276571-6.875429 86.308571-6.875429 132.096z m692.516571-132.096h-236.763428c4.388571 43.373714 6.875429 87.771429 6.875428 132.096 0 44.324571-2.56 88.868571-6.875428 132.096h236.617143c11.337143-42.422857 17.773714-86.308571 17.773714-132.096 0-45.714286-6.436571-89.819429-17.627429-132.096zM658.285714 1002.422857a513.755429 513.755429 0 0 0 326.290286-292.352h-223.158857c-18.212571 117.613714-52.736 222.72-103.131429 292.352zM39.862857 710.217143a513.097143 513.097143 0 0 0 326.363429 292.352c-50.468571-69.778286-85.138286-174.811429-103.277715-292.352H39.862857z m289.499429 0C359.350857 894.537143 430.08 1024 512.146286 1024 594.285714 1024 664.868571 894.537143 694.857143 710.217143H329.362286z" p-id="5904" fill="#e6e6e6"></path></svg>