<svg width="25" height="25" xmlns="http://www.w3.org/2000/svg" fill="none">

 <g>
  <title>Layer 1</title>
  <path id="svg_1" fill-opacity="0.01" fill="white" d="m0,0l25,0l0,25l-25,0l0,-25z"/>
  <path id="svg_2" stroke-linejoin="round" stroke-linecap="round" stroke-width="2" stroke="#11CCC1" d="m16.1455,22.3968c0,0 -6.77083,0.5208 -10.41666,-3.6458c-3.64583,-4.1667 -3.64583,-16.66669 -3.64583,-16.66669c0,0 12.49999,-0.52083 16.66669,2.60417c4.1666,3.125 3.125,11.97912 3.125,11.97912"/>
  <path id="svg_3" stroke-linejoin="round" stroke-linecap="round" stroke-width="2" stroke="#11CCC1" d="m22.9163,22.9173c0,0 -5.8225,-4.4002 -9.375,-8.3333c-3.55241,-3.9331 -5.20829,-7.81252 -5.20829,-7.81252"/>
  <path id="svg_4" stroke-linejoin="round" stroke-linecap="round" stroke-width="2" stroke="#11CCC1" d="m13.541,14.5843l0.5208,-6.77082"/>
  <path id="svg_5" stroke-linejoin="round" stroke-linecap="round" stroke-width="2" stroke="#11CCC1" d="m13.5413,14.5843l-5.20829,-0.5208"/>
 </g>
</svg>