<svg width="20" height="20" xmlns="http://www.w3.org/2000/svg" fill="none">

 <g>
  <title>Layer 1</title>
  <path id="svg_1" fill-opacity="0.01" fill="white" d="m0,0l20,0l0,20l-20,0l0,-20z"/>
  <path id="svg_2" stroke-linejoin="round" stroke-linecap="round" stroke="black" d="m4.10777,13.6484c-1.50804,0.4525 -2.44078,1.0775 -2.44078,1.7678c0,1.3807 3.73096,2.5 8.33331,2.5c4.6024,0 8.3334,-1.1193 8.3334,-2.5c0,-0.6903 -0.9328,-1.3153 -2.4408,-1.7678"/>
  <path id="svg_3" stroke-linejoin="round" stroke="black" fill="#ECECEC" d="m10.0002,14.5827c0,0 5.4166,-3.54 5.4166,-7.6326c0,-2.91832 -2.4251,-5.28408 -5.4166,-5.28408c-2.99158,0 -5.4167,2.36576 -5.4167,5.28408c0,4.0926 5.4167,7.6326 5.4167,7.6326z"/>
  <path id="svg_4" stroke-linejoin="round" stroke="white" fill="#43CCF8" d="m10.0003,9.16569c1.1506,0 2.0834,-0.93275 2.0834,-2.08333c0,-1.15059 -0.9328,-2.08334 -2.0834,-2.08334c-1.15056,0 -2.08331,0.93275 -2.08331,2.08334c0,1.15058 0.93275,2.08333 2.08331,2.08333z"/>
 </g>
</svg>