<?xml version="1.0" standalone="no"?><!DOCTYPE svg PUBLIC "-//W3C//DTD SVG 1.1//EN" "http://www.w3.org/Graphics/SVG/1.1/DTD/svg11.dtd"><svg t="1718099737595" class="icon" viewBox="0 0 1024 1024" version="1.1" xmlns="http://www.w3.org/2000/svg" p-id="128844" xmlns:xlink="http://www.w3.org/1999/xlink" width="200" height="200"><path d="M67.7 280.2h142.6l124.8 171.1 46.4-57S256.7 223.2 246 208.9H67.7c-21.4 0-35.7 17.8-35.7 39.2 0 17.9 14.3 32.1 35.7 32.1z m713 0v96.3c10.7 10.7 42.8 14.3 53.5 3.6L984 266c10.7-10.7 10.7-28.5 0-39.2L834.2 112.7c-10.7-10.7-42.8-14.3-53.5-3.6v99.8H602.5L210.3 743.8H67.7c-21.4 0-35.7 14.2-35.7 32 0 21.4 14.3 39.2 35.7 39.2H246l392.2-534.8h142.5z m53.5 363.7c-10.7-10.7-42.8-7.1-53.5 3.6v96.3H638.1L513.3 572.6l-46.4 57 135.5 181.8h178.3v103.4c10.7 10.7 42.8 7.1 53.5-3.6l149.8-114c10.7-10.7 10.7-28.5 0-39.2L834.2 643.9z" p-id="128845" fill="#2c2c2c"></path></svg>