<?xml version="1.0" standalone="no"?><!DOCTYPE svg PUBLIC "-//W3C//DTD SVG 1.1//EN" "http://www.w3.org/Graphics/SVG/1.1/DTD/svg11.dtd"><svg t="1718099604578" class="icon" viewBox="0 0 1024 1024" version="1.1" xmlns="http://www.w3.org/2000/svg" p-id="121886" xmlns:xlink="http://www.w3.org/1999/xlink" width="200" height="200"><path d="M697.748837 757.283721h138.12093V404.837209h-138.12093v352.446512zM512 95.255814L95.255814 285.767442v23.813953h833.488372v-23.813953L512 95.255814z m-85.730233 309.581395v354.827907h176.223256V404.837209h-176.223256z m-95.255814 0H185.748837v354.827907h145.265116V404.837209zM928.744186 852.539535H95.255814V928.744186h833.488372v-76.204651zM552.483721 9.525581l416.744186 192.893024c33.339535 16.669767 54.772093 47.627907 54.772093 85.730232V404.837209h-90.493023v354.827907H1024V928.744186c0 52.390698-42.865116 95.255814-95.255814 95.255814H95.255814c-52.390698 0-95.255814-42.865116-95.255814-95.255814v-171.460465h90.493023V404.837209H0v-119.069767c0-35.72093 21.432558-69.060465 54.772093-85.730233L471.516279 7.144186c26.195349-9.525581 54.772093-9.525581 80.967442 2.381395z" fill="#2c2c2c" p-id="121887"></path></svg>