<svg width="40" height="40" xmlns="http://www.w3.org/2000/svg" fill="none">

 <g>
  <title>Layer 1</title>
  <path id="svg_1" fill="#11CCC1" d="m40,21.955c-0.3795,3.7757 -1.8227,7.3661 -4.1618,10.3541c-2.3391,2.9879 -5.478,5.2508 -9.0521,6.5256c-3.5742,1.2748 -7.4367,1.5092 -11.1387,0.6759c-3.702,-0.8333 -7.09159,-2.7 -9.77481,-5.3832c-2.68322,-2.6832 -4.54993,-6.0728 -5.3832,-9.7748c-0.83327,-3.702 -0.59889,-7.5645 0.6759,-11.1387c1.2748,-3.57407 3.53766,-6.71305 6.52565,-9.05214c2.98796,-2.33909 6.57836,-3.78224 10.35406,-4.16176l0,21.955l21.955,0zm-0.1604,-5.213l-16.5816,0l0,-16.5816c4.1545,0.67383 7.9916,2.63791 10.9676,5.61395c2.9761,2.97605 4.9402,6.81315 5.614,10.96765z"/>
 </g>
</svg>