<svg width="40" height="40" xmlns="http://www.w3.org/2000/svg" fill="none">

 <g>
  <title>Layer 1</title>
  <path id="svg_1" fill="#11CCC1" d="m18,40l0,-3.4l0.02,-0.48l12.12,-12.12l5.88,0c2.2,0 3.98,1.78 3.98,4l0,8c0,1.0609 -0.4214,2.0783 -1.1716,2.8284c-0.7501,0.7502 -1.7675,1.1716 -2.8284,1.1716l-18,0zm0,-6.68l0,-22.64l4.16,-4.14c0.3698,-0.37129 0.8093,-0.66591 1.2932,-0.86693c0.4839,-0.20103 1.0028,-0.30451 1.5268,-0.30451c0.524,0 1.0429,0.10348 1.5268,0.30451c0.4839,0.20102 0.9234,0.49564 1.2932,0.86693l5.66,5.66c0.745,0.7494 1.1632,1.7633 1.1632,2.82c0,1.0567 -0.4182,2.0705 -1.1632,2.82l-15.46,15.48zm-18,-29.34c0,-2.18 1.78,-3.98 4,-3.98l8,0c1.0609,0 2.0783,0.42143 2.8284,1.17157c0.7502,0.75015 1.1716,1.76756 1.1716,2.82843l0,32c0,1.0609 -0.4214,2.0783 -1.1716,2.8284c-0.7501,0.7502 -1.7675,1.1716 -2.8284,1.1716l-8,0c-1.06087,0 -2.07828,-0.4214 -2.82843,-1.1716c-0.75014,-0.7501 -1.17157,-1.7675 -1.17157,-2.8284l0,-32l0,-0.02zm8,30.02c0.53043,0 1.03914,-0.2107 1.41421,-0.5858c0.37508,-0.3751 0.58579,-0.8838 0.58579,-1.4142c0,-0.5304 -0.21071,-1.0391 -0.58579,-1.4142c-0.37507,-0.3751 -0.88378,-0.5858 -1.41421,-0.5858c-0.53043,0 -1.03914,0.2107 -1.41421,0.5858c-0.37508,0.3751 -0.58579,0.8838 -0.58579,1.4142c0,0.5304 0.21071,1.0391 0.58579,1.4142c0.37507,0.3751 0.88378,0.5858 1.41421,0.5858z"/>
 </g>
</svg>