<?xml version="1.0" standalone="no"?><!DOCTYPE svg PUBLIC "-//W3C//DTD SVG 1.1//EN" "http://www.w3.org/Graphics/SVG/1.1/DTD/svg11.dtd"><svg t="1718101601436" class="icon" viewBox="0 0 1027 1024" version="1.1" xmlns="http://www.w3.org/2000/svg" p-id="12514" xmlns:xlink="http://www.w3.org/1999/xlink" width="200.5859375" height="200"><path d="M513.776886 0C138.666426 0 0 325.92536 0 510.221336s133.333102 513.776886 503.702829 513.776886c0 0 91.851692 1.481479 91.851693-80.888748s-41.185114-56.296199-41.185114-115.555355S594.665634 740.739455 614.517452 740.739455s150.221961 9.777761 223.110723-18.370339a296.295782 296.295782 0 0 0 189.925597-269.03657C1027.257476 320.592036 888.887346 0 513.776886 0zM200.592244 511.999111a88.888735 88.888735 0 1 1 88.888735-88.888734 88.888735 88.888735 0 0 1-88.888735 88.888734z m168.296004-220.740357a88.888735 88.888735 0 1 1 88.888735-88.888735 88.888735 88.888735 0 0 1-89.18503 88.888735z m285.92543 0a88.888735 88.888735 0 1 1 88.888735-88.888735 88.888735 88.888735 0 0 1-88.888735 88.888735z m169.777483 220.740357a88.888735 88.888735 0 1 1 88.888735-88.888734 88.888735 88.888735 0 0 1-88.888735 88.888734z" fill="#e6e6e6" p-id="12515"></path></svg>