<svg width="20" height="20" xmlns="http://www.w3.org/2000/svg" fill="none">

 <g>
  <title>Layer 1</title>
  <path id="svg_1" fill-opacity="0.01" fill="white" d="m0,0l20,0l0,20l-20,0l0,-20z"/>
  <path id="svg_2" stroke-linejoin="round" stroke-linecap="round" stroke="black" fill="white" d="m10.0002,8.33333c1.6108,0 2.9166,-1.30583 2.9166,-2.91666c0,-1.61083 -1.3058,-2.91667 -2.9166,-2.91667c-1.61087,0 -2.9167,1.30584 -2.9167,2.91667c0,1.61083 1.30583,2.91666 2.9167,2.91666z"/>
  <path id="svg_3" stroke-linejoin="round" stroke-linecap="round" stroke="black" fill="white" d="m2.5,17.0003l0,0.5l15,0l0,-0.5c0,-1.8668 0,-2.8002 -0.3633,-3.5133c-0.3196,-0.6272 -0.8295,-1.1371 -1.4567,-1.4567c-0.7131,-0.3633 -1.6465,-0.3633 -3.5133,-0.3633l-4.33337,0c-1.86683,0 -2.80025,0 -3.51329,0.3633c-0.62721,0.3196 -1.13715,0.8295 -1.45673,1.4567c-0.36331,0.7131 -0.36331,1.6465 -0.36331,3.5133z"/>
 </g>
</svg>